<?xml version="1.0" encoding="iso-8859-1"?>
<!-- Generator: Adobe Illustrator 19.0.0, SVG Export Plug-In . SVG Version: 6.00 Build 0)  -->
<svg xmlns="http://www.w3.org/2000/svg" xmlns:xlink="http://www.w3.org/1999/xlink" version="1.1" id="Capa_1" x="0px" y="0px" viewBox="0 0 496 496" style="enable-background:new 0 0 496 496;" xml:space="preserve" width="512px" height="512px">
<g>
	<g>
		<path d="M464,416h-39.16l-3.2-32H456v-64h-40.76l-3.2-32H448v-64h-42.36l-3.2-32H440v-64h-43.96l-3.2-32H424V32h-37.56l-3.2-32    h-64.08l3.2,32H173.64l3.2-32h-64.08l-3.2,32H72v64h31.16l-3.2,32H56v64h37.56l-3.2,32H48v64h35.96l-3.2,32H40v64h34.36l-3.2,32    H32v64h32.76l-1.6,16h64.08l1.6-16h238.32l1.6,16h64.08l-1.6-16H464V416z M66.36,464H48v-32h21.56L66.36,464z M75.96,368H56v-32    h23.16L75.96,368z M432,240v32h-21.56l-3.2-32H432z M424,144v32h-23.16l-3.2-32H424z M408,48v32h-16.76l-3.2-32H408z M167.248,96    H184V80h-15.16l3.2-32h151.92l3.2,32H200v16h128.768l3.2,32h-167.92L167.248,96z M162.44,144h171.12l3.2,32H159.24L162.44,144z     M144.84,320l3.2-32h199.92l3.2,32H144.84z M352.76,336l3.2,32H140.04l3.2-32H352.76z M149.64,272l3.2-32h190.32l3.2,32H149.64z     M154.44,224l3.2-32h180.72l3.2,32H154.44z M88,80V48h19.96l-3.2,32H88z M72,176v-32h26.36l-3.2,32H72z M64,272v-32h24.76l-3.2,32    H64z M112.76,480H80.84l46.4-464h31.92L112.76,480z M130.44,464l3.2-32H328v-16H135.24l3.2-32h219.12l3.2,32H344v16h18.36l3.2,32    H130.44z M383.24,480l-46.4-464h31.92l46.4,464H383.24z M416.84,336H440v32h-19.96L416.84,336z M448,464h-18.36l-3.2-32H448V464z" fill="#FFFFFF"/>
	</g>
</g>
<g>
</g>
<g>
</g>
<g>
</g>
<g>
</g>
<g>
</g>
<g>
</g>
<g>
</g>
<g>
</g>
<g>
</g>
<g>
</g>
<g>
</g>
<g>
</g>
<g>
</g>
<g>
</g>
<g>
</g>
</svg>
