<?xml version="1.0" encoding="utf-8"?>
<!-- Generator: Adobe Illustrator 21.1.0, SVG Export Plug-In . SVG Version: 6.00 Build 0)  -->
<svg version="1.1" id="Layer_1" xmlns="http://www.w3.org/2000/svg" xmlns:xlink="http://www.w3.org/1999/xlink" x="0px" y="0px"
	 viewBox="0 0 523 526.5" style="enable-background:new 0 0 523 526.5;" xml:space="preserve">
<style type="text/css">
	.st0{fill:#3FA6BE;}
</style>
<g>
	<g>
		<g>
			<path class="st0" d="M486.1,503.6l-69.4-95.4c18.6-6.6,31.9-24.3,31.9-45.2V55.2c0-26.4-21.5-47.9-47.9-47.9H122.3
				c-26.4,0-47.9,21.5-47.9,47.9V363c0,20.8,13.3,38.6,31.9,45.2l-69.4,95.4c-3.2,4.4-2.2,10.6,2.2,13.8c1.7,1.3,3.8,1.9,5.8,1.9
				c3,0,6-1.4,8-4.1l18.5-25.5h380.2l18.5,25.5c1.9,2.6,4.9,4.1,8,4.1c2,0,4-0.6,5.8-1.9C488.3,514.2,489.3,508,486.1,503.6z
				 M94.1,363V55.2c0-15.6,12.7-28.2,28.2-28.2h278.3c15.6,0,28.2,12.7,28.2,28.2V363c0,15.6-12.7,28.2-28.2,28.2H122.3
				C106.8,391.3,94.1,378.6,94.1,363z M408.6,430.6H114.3l14.3-19.7h265.7L408.6,430.6z M85.7,470l14.3-19.7h323l14.3,19.7H85.7z"/>
		</g>
	</g>
	<g>
		<g>
			<path class="st0" d="M372.8,56.5H150.2c-20.1,0-36.4,16.3-36.4,36.4V217c0,20.1,16.3,36.4,36.4,36.4h222.5
				c20.1,0,36.4-16.3,36.4-36.4V92.9C409.2,72.8,392.8,56.5,372.8,56.5z M389.5,217c0,9.2-7.5,16.7-16.7,16.7H150.2
				c-9.2,0-16.7-7.5-16.7-16.7v-3H163c5.4,0,9.8-4.4,9.8-9.8s-4.4-9.8-9.8-9.8h-29.5V92.9c0-9.2,7.5-16.7,16.7-16.7h222.5
				c9.2,0,16.7,7.5,16.7,16.7L389.5,217L389.5,217z"/>
		</g>
	</g>
	<g>
		<g>
			<path class="st0" d="M350.1,282.9c-21.7,0-39.4,17.7-39.4,39.4s17.7,39.4,39.4,39.4s39.4-17.7,39.4-39.4
				C389.5,300.6,371.8,282.9,350.1,282.9z M350.1,342c-10.9,0-19.7-8.8-19.7-19.7s8.8-19.7,19.7-19.7s19.7,8.8,19.7,19.7
				S361,342,350.1,342z"/>
		</g>
	</g>
	<g>
		<g>
			<path class="st0" d="M172.9,282.9c-21.7,0-39.4,17.7-39.4,39.4s17.7,39.4,39.4,39.4s39.4-17.7,39.4-39.4
				C212.3,300.6,194.6,282.9,172.9,282.9z M172.9,342c-10.9,0-19.7-8.8-19.7-19.7s8.8-19.7,19.7-19.7s19.7,8.8,19.7,19.7
				S183.7,342,172.9,342z"/>
		</g>
	</g>
	<g>
		<g>
			<path class="st0" d="M199.5,197.2c-1.8-1.8-4.4-2.9-7-2.9s-5.1,1.1-7,2.9s-2.9,4.4-2.9,7s1.1,5.1,2.9,7c1.8,1.8,4.4,2.9,7,2.9
				c2.6,0,5.1-1.1,7-2.9c1.8-1.8,2.9-4.4,2.9-7S201.4,199,199.5,197.2z"/>
		</g>
	</g>
	<g>
	</g>
	<g>
	</g>
	<g>
	</g>
	<g>
	</g>
	<g>
	</g>
	<g>
	</g>
	<g>
	</g>
	<g>
	</g>
	<g>
	</g>
	<g>
	</g>
	<g>
	</g>
	<g>
	</g>
	<g>
	</g>
	<g>
	</g>
	<g>
	</g>
</g>
</svg>
